<svg width="126" height="44" viewBox="0 0 126 44" fill="none" xmlns="http://www.w3.org/2000/svg">
<path d="M15.7631 41.1884C15.8719 41.3624 15.9807 41.5413 16.0895 41.7154L12.1319 44C11.6508 43.2336 11.1745 42.4648 10.6959 41.696C9.62728 39.982 8.55871 38.2679 7.4853 36.5539C6.48201 35.0477 5.55849 33.4884 4.6108 31.9484C3.70904 30.4833 2.713 29.069 1.87651 27.5653C1.74838 27.3356 1.6275 27.1059 1.50904 26.8738C0.800688 25.4716 0.331677 23.9534 0.123765 22.3989C0.0125558 21.5552 -0.0237079 20.7042 0.0149734 19.858C0.319589 13.0163 5.573 7.38088 12.26 6.49121C12.2624 6.5178 12.2624 6.53956 12.2624 6.56374C12.3035 8.32616 11.9796 10.0015 11.322 11.4593C7.46596 12.6585 4.66157 16.2558 4.66157 20.5084C4.66157 23.1919 6.00332 25.3363 7.35717 27.5363C8.30003 29.0666 9.24047 30.5969 10.1833 32.1248C11.2785 33.9018 12.3712 35.6787 13.4664 37.458C14.2328 38.7031 14.9967 39.9433 15.7607 41.1884H15.7631Z" fill="#231F20"/>
<path d="M28.2861 20.5084C28.2861 25.2154 25.9846 29.3857 22.4476 31.9556C19.4281 34.1532 15.1611 33.1838 13.2947 29.949C13.5751 29.9756 13.8556 29.9877 14.1408 29.9877C14.5035 29.9877 14.8637 29.9684 15.2167 29.9273C15.6784 29.8765 16.1329 29.7895 16.5729 29.671C20.8303 28.5468 23.9127 24.5288 23.596 19.8459C23.4171 17.2325 22.16 14.8972 20.2646 13.287C20.3564 12.5158 20.3443 11.7035 20.2259 10.867C20.047 9.60507 19.6698 8.41562 19.1887 7.29144C24.5074 9.32463 28.2837 14.4741 28.2837 20.5084H28.2861Z" fill="#231F20"/>
<path d="M5.58025 24.5844C5.38201 24.171 5.21278 23.7382 5.07739 23.2934L5.58025 24.5844Z" fill="#231F20"/>
<path d="M5.58025 24.5844C5.38201 24.171 5.21278 23.7382 5.07739 23.2934L5.58025 24.5844Z" fill="#231F20"/>
<path d="M18.5432 12.1218C18.5601 13.1637 18.3619 14.2057 17.8735 15.1196C17.1482 16.4807 15.8597 17.4332 14.7548 18.509C13.708 19.5316 12.7942 20.7187 12.2599 22.0798C11.7232 23.4409 11.5926 24.993 12.081 26.371C11.0076 25.9479 9.98252 25.3556 9.19439 24.5167C8.40143 23.6754 7.85989 22.5705 7.83571 21.4198C7.81395 20.3029 8.26846 19.227 8.84143 18.2697C9.94143 16.4299 11.4983 14.8851 12.5355 13.0066C12.8788 12.3877 13.1568 11.7374 13.3792 11.0653C13.8676 9.60989 14.0755 8.0578 14.0392 6.52505C14.0368 6.47187 14.0368 6.41868 14.0344 6.36549C13.957 4.17758 13.401 2.01868 12.55 0C12.7216 0.408571 13.2197 0.829231 13.4904 1.18945C13.8168 1.61978 14.1335 2.05494 14.4405 2.49978C15.0546 3.38945 15.63 4.3033 16.1619 5.2389C16.423 5.69824 16.6792 6.16483 16.9234 6.6411C17.6463 8.0578 18.2482 9.54945 18.4707 11.1209C18.5166 11.4545 18.5432 11.7881 18.548 12.1266L18.5432 12.1218Z" fill="#EF6C32"/>
<path d="M19.324 22.7035C18.2216 24.1468 16.3045 24.9905 15.7121 26.707C15.219 25.6143 14.9675 24.4152 14.982 23.2136C14.9893 22.5875 15.086 21.9178 15.4946 21.4415C15.879 20.9943 16.4616 20.7936 16.9717 20.5035C17.946 19.9499 18.6979 19.0119 19.0267 17.9409C19.1693 17.4839 19.2491 16.4323 19.7471 16.2389C20.8809 18.0158 20.5667 21.0741 19.324 22.7011V22.7035Z" fill="#EF6C32"/>
<path d="M19.324 22.7035C18.2216 24.1468 16.3045 24.9905 15.7121 26.707C15.219 25.6143 14.9675 24.4152 14.982 23.2136C14.9893 22.5875 15.086 21.9178 15.4946 21.4415C15.879 20.9943 16.4616 20.7936 16.9717 20.5035C17.946 19.9499 18.6979 19.0119 19.0267 17.9409C19.1693 17.4839 19.2491 16.4323 19.7471 16.2389C20.8809 18.0158 20.5667 21.0741 19.324 22.7011V22.7035Z" fill="#EF6C32"/>
<path d="M44.0269 32.4996C43.7489 32.6132 43.1711 32.7994 42.4168 32.7994C41.6625 32.7994 41.017 32.6132 40.461 32.0765C40.0041 31.6317 39.6995 30.8895 39.6995 29.9998C39.6995 28.4671 40.7052 27.1616 42.5836 27.1616C43.1759 27.1616 43.657 27.3042 43.8722 27.4082L43.7441 27.7321C43.4564 27.5967 43.0889 27.4952 42.5619 27.4952C41.0364 27.4952 40.1032 28.484 40.1032 29.9805C40.1032 31.4769 41.017 32.4706 42.4773 32.4706C43.0575 32.4706 43.4298 32.3835 43.6329 32.2772V30.331H42.3516V30.0095H44.0221V32.502L44.0269 32.4996Z" fill="#231F20"/>
<path d="M45.8402 30.8097L45.1584 32.7437H44.7595L46.7589 27.2147H47.1384L49.1305 32.7437H48.7268L48.0329 30.8097H45.845H45.8402ZM47.9096 30.4833L47.2375 28.6363C47.1022 28.2519 47.0296 27.9763 46.9474 27.662H46.9281C46.8507 27.9835 46.7613 28.2712 46.6404 28.6193L45.9635 30.4833H47.9096Z" fill="#231F20"/>
<path d="M49.8049 32.1345C50.1168 32.3472 50.5496 32.4995 51.0137 32.4995C51.8405 32.4995 52.3458 32.0305 52.3458 31.3488C52.3458 30.7299 52.0243 30.3648 51.2265 30.0578C50.3368 29.7411 49.8025 29.2842 49.8025 28.5323C49.8025 27.7224 50.4698 27.1325 51.4102 27.1325C51.93 27.1325 52.3216 27.2655 52.5102 27.3936L52.3579 27.7224C52.208 27.6184 51.8551 27.4589 51.3812 27.4589C50.4891 27.4589 50.1869 28.0318 50.1869 28.4646C50.1869 29.0787 50.5423 29.3905 51.3329 29.7C52.2443 30.0699 52.7302 30.4833 52.7302 31.3125C52.7302 32.1417 52.1572 32.8307 50.9775 32.8307C50.4988 32.8307 49.9452 32.676 49.6575 32.4584L49.8049 32.1321V32.1345Z" fill="#231F20"/>
<path d="M56.3833 29.9974H54.1737V32.415H56.6468V32.7462H53.7844V27.2172H56.5163V27.5484H54.1737V29.6686H56.3833V29.9998V29.9974Z" fill="#231F20"/>
<path d="M57.4324 32.1345C57.7443 32.3472 58.177 32.4995 58.6412 32.4995C59.468 32.4995 59.9733 32.0305 59.9733 31.3488C59.9733 30.7299 59.6517 30.3648 58.8539 30.0578C57.9643 29.7411 57.43 29.2842 57.43 28.5323C57.43 27.7224 58.0972 27.1325 59.0377 27.1325C59.5574 27.1325 59.9491 27.2655 60.1377 27.3936L59.9854 27.7224C59.8355 27.6184 59.4825 27.4589 59.0086 27.4589C58.1166 27.4589 57.8144 28.0318 57.8144 28.4646C57.8144 29.0787 58.1697 29.3905 58.9603 29.7C59.8717 30.0699 60.3577 30.4833 60.3577 31.3125C60.3577 32.1417 59.7847 32.8307 58.6049 32.8307C58.1262 32.8307 57.5726 32.676 57.2849 32.4584L57.4324 32.1321V32.1345Z" fill="#231F20"/>
<path d="M66.6386 32.7438C66.4573 32.5624 66.2953 32.386 66.0294 32.1152C65.4734 32.6495 64.9342 32.8332 64.354 32.8332C63.445 32.8332 62.7947 32.1515 62.7947 31.2908C62.7947 30.5244 63.2709 30.0167 63.8874 29.6613V29.6372C63.578 29.2213 63.4087 28.82 63.4087 28.4284C63.4087 27.7684 63.8584 27.1253 64.6562 27.1253C65.2437 27.1253 65.7103 27.5508 65.7103 28.2253C65.7103 28.8176 65.3646 29.2649 64.4217 29.7315V29.7556C64.985 30.4156 65.6208 31.1361 66.0318 31.6051C66.305 31.1941 66.4742 30.6453 66.6024 29.8282H66.9747C66.8272 30.713 66.6169 31.3851 66.2518 31.8323C66.5371 32.1224 66.8006 32.3981 67.1318 32.7438H66.6386ZM65.8118 31.8807C65.4927 31.5084 64.7747 30.7275 64.0687 29.9031C63.7206 30.111 63.1839 30.5268 63.1839 31.2449C63.1839 31.9629 63.7182 32.5165 64.4386 32.5165C65.014 32.5165 65.4879 32.253 65.8118 31.8831V31.8807ZM63.781 28.3921C63.781 28.8587 64.0035 29.1996 64.2283 29.509C64.8883 29.1609 65.3428 28.82 65.3428 28.2616C65.3428 27.8699 65.1276 27.442 64.5982 27.442C64.0687 27.442 63.781 27.8893 63.781 28.3945V28.3921Z" fill="#231F20"/>
<path d="M69.5977 27.2172H72.3295V27.5484H69.9869V29.7435H72.1361V30.0747H69.9869V32.7486H69.5977V27.2196V27.2172Z" fill="#231F20"/>
<path d="M73.7752 27.2172V30.5534C73.7752 31.958 74.4328 32.5044 75.2475 32.5044C76.159 32.5044 76.7948 31.9145 76.7948 30.5534V27.2172H77.184V30.5196C77.184 32.2143 76.2726 32.8356 75.2258 32.8356C74.2612 32.8356 73.386 32.2723 73.386 30.5776V27.2172H73.7752Z" fill="#231F20"/>
<path d="M81.1199 29.9974H78.9102V32.415H81.3834V32.7462H78.521V27.2172H81.2529V27.5484H78.9102V29.6686H81.1199V29.9998V29.9974Z" fill="#231F20"/>
<path d="M82.3432 27.2172H82.7325V32.4174H85.196V32.7462H82.3408V27.2172H82.3432Z" fill="#231F20"/>
<path d="M85.844 32.1345C86.1558 32.3472 86.5886 32.4995 87.0528 32.4995C87.8796 32.4995 88.3849 32.0305 88.3849 31.3488C88.3849 30.7299 88.0633 30.3648 87.2655 30.0578C86.3758 29.7411 85.8416 29.2842 85.8416 28.5323C85.8416 27.7224 86.5112 27.1325 87.4493 27.1325C87.969 27.1325 88.3607 27.2655 88.5493 27.3936L88.3969 27.7224C88.2471 27.6184 87.8941 27.4589 87.4202 27.4589C86.5282 27.4589 86.2235 28.0318 86.2235 28.4646C86.2235 29.0787 86.5789 29.3905 87.3695 29.7C88.2809 30.0699 88.7668 30.4833 88.7668 31.3125C88.7668 32.1417 88.1915 32.8307 87.0141 32.8307C86.5354 32.8307 85.9818 32.676 85.6941 32.4584L85.8416 32.1321L85.844 32.1345Z" fill="#231F20"/>
<path d="M91.6194 27.28C91.9385 27.2196 92.335 27.1736 92.8016 27.1736C93.4616 27.1736 93.9572 27.3429 94.2642 27.6402C94.5302 27.8989 94.6897 28.2616 94.6897 28.7233C94.6897 29.1851 94.5567 29.555 94.3053 29.8281C93.9523 30.2343 93.3576 30.4446 92.6807 30.4446C92.4317 30.4446 92.2069 30.4374 92.011 30.3794V32.7438H91.6218V27.28H91.6194ZM92.0086 30.0385C92.202 30.0989 92.4438 30.1183 92.7097 30.1183C93.7009 30.1183 94.2932 29.6396 94.2932 28.762C94.2932 27.8844 93.6647 27.5 92.7871 27.5C92.4293 27.5 92.1585 27.5339 92.011 27.5653V30.0361L92.0086 30.0385Z" fill="#231F20"/>
<path d="M96.752 32.7437L94.9194 27.2147H95.3304L96.3071 30.1787C96.5706 30.9789 96.8003 31.6824 96.955 32.2965H96.9744C97.1388 31.6727 97.395 30.9523 97.6803 30.1811L98.7586 27.2171H99.172L97.1267 32.7462H96.7544L96.752 32.7437Z" fill="#231F20"/>
<path d="M101.64 27.5435H99.8394V27.2147H103.833V27.5435H102.03V32.7437H101.64V27.5435Z" fill="#231F20"/>
<path d="M106.509 27.031C105.828 27.8723 105.356 28.9119 105.356 30.4156C105.356 31.9194 105.852 32.8985 106.509 33.7519H106.139C105.569 33.0484 104.981 32.0185 104.981 30.4108C104.981 28.8031 105.569 27.7514 106.139 27.031H106.509Z" fill="#231F20"/>
<path d="M107.145 27.2172H107.534V32.4174H109.998V32.7462H107.143V27.2172H107.145Z" fill="#231F20"/>
<path d="M111.451 27.5435H109.65V27.2147H113.644V27.5435H111.84V32.7437H111.451V27.5435Z" fill="#231F20"/>
<path d="M114.033 27.2921C114.458 27.222 114.927 27.1736 115.45 27.1736C116.455 27.1736 117.219 27.4468 117.674 27.9303C118.119 28.3897 118.363 29.0086 118.363 29.8451C118.363 30.6816 118.14 31.3923 117.64 31.9411C117.154 32.473 116.322 32.7873 115.256 32.7873C114.831 32.7873 114.429 32.78 114.033 32.7389V27.2921ZM114.422 32.415C114.647 32.4488 114.969 32.4561 115.314 32.4561C117.091 32.4561 117.964 31.4649 117.964 29.862C117.976 28.4598 117.198 27.5 115.425 27.5C114.998 27.5 114.664 27.5411 114.422 27.5871V32.4125V32.415Z" fill="#231F20"/>
<path d="M118.251 33.7543C118.907 32.913 119.405 31.8783 119.405 30.3866C119.405 28.895 118.921 27.8844 118.251 27.031H118.621C119.192 27.7321 119.779 28.7668 119.779 30.3914C119.779 32.0161 119.192 33.0314 118.621 33.7519H118.251V33.7543Z" fill="#231F20"/>
<path d="M34.3276 11.1983C35.3019 11.029 36.6944 10.9033 38.5415 10.9033C40.5094 10.9033 41.9454 11.2249 42.9439 12.0299C43.894 12.7649 44.4621 14.0099 44.4621 15.3758C44.4621 16.8747 43.969 18.1101 43.0914 18.92C42.0107 19.904 40.403 20.3391 38.7325 20.3391C38.4303 20.3391 38.1523 20.3174 37.9395 20.3053V25.1961H34.3301V11.1983H34.3276ZM37.9371 17.4743C38.1184 17.5057 38.3336 17.5178 38.6599 17.5178C40.0863 17.5178 40.8624 16.6934 40.8624 15.5282C40.8624 14.4451 40.2338 13.6908 38.9041 13.6908C38.4496 13.6908 38.1184 13.7319 37.9395 13.7851V17.4743H37.9371Z" fill="#231F20"/>
<path d="M53.8424 19.3818H49.3408V22.1741H54.3767V25.1961H45.7V10.9976H54.1011V14.0196H49.3408V16.4203H53.8424V19.3818Z" fill="#231F20"/>
<path d="M60.341 14.1429H57.0676V11H67.3061V14.1429H63.9795V25.196H60.3386V14.1429H60.341Z" fill="#231F20"/>
<path d="M68.4399 11.1983C69.4771 11.029 70.9639 10.9033 72.6441 10.9033C74.6338 10.9033 76.1738 11.1693 77.2206 11.9985C78.1369 12.731 78.5551 13.7246 78.5551 15.0761C78.5551 16.7321 77.4164 18.0424 76.2076 18.5284V18.5936C77.1457 19.0046 77.6413 19.8919 77.9725 21.1708C78.3472 22.6044 78.8017 24.6497 79.0749 25.1985H75.3301C75.127 24.7972 74.7692 23.5763 74.4259 21.9033C74.0922 20.2062 73.616 19.8387 72.5788 19.8387H72.0518V25.1961H68.4424V11.1983H68.4399ZM72.0494 17.1769H72.869C74.189 17.1769 74.9239 16.4154 74.9239 15.3613C74.9239 14.3073 74.3147 13.6497 73.1252 13.6304C72.5595 13.6304 72.2186 13.6618 72.0494 13.715V17.1794V17.1769Z" fill="#231F20"/>
<path d="M91.1797 23.2112L96.8803 14.126V14.051H91.7236V10.9976H101.43V13.2532L95.9399 22.0677V22.1427H101.498V25.1961H91.1797V23.2112Z" fill="#231F20"/>
<path d="M110.692 19.3818H106.19V22.1741H111.226V25.1961H102.55V10.9976H110.951V14.0196H106.19V16.4203H110.692V19.3818Z" fill="#231F20"/>
<path d="M113.919 25.1961V10.9976H117.952L120.13 15.5765C120.776 16.8361 121.561 18.7049 122.105 20.1989H122.159C121.987 18.5429 121.864 16.326 121.864 14.0365V11H125.149V25.1985H121.45L119.19 20.46C118.503 19.0772 117.664 17.1794 117.111 15.6636H117.045C117.13 17.3728 117.202 19.5752 117.202 22.0242V25.1985H113.917L113.919 25.1961Z" fill="#231F20"/>
<path d="M88.7548 17.2591C87.6886 14.9479 86.2236 12.8156 84.7053 10.7849C83.2427 12.7407 81.8405 14.7835 80.7816 16.9884C80.7308 17.0923 80.6825 17.1963 80.6341 17.3027C79.9886 18.6662 79.568 20.049 79.9669 21.5455C80.3029 22.7978 81.1297 23.9172 82.2853 24.524C82.8365 24.8141 83.4337 25.0123 84.0453 25.138C84.2629 25.1816 84.4853 25.1985 84.7053 25.1936C84.8576 25.1936 85.0051 25.1816 85.1574 25.1598C86.4943 24.993 87.8216 24.3112 88.6436 23.2281C90.0071 21.4343 89.6372 19.1642 88.7548 17.2543V17.2591ZM84.0042 23.1556C83.7117 23.2064 83.4192 23.0879 83.1629 22.9453C82.3578 22.4932 81.7148 21.7341 81.4851 20.8372C81.3545 20.3343 81.3666 19.7928 81.5141 19.2947C81.5915 19.0385 81.7027 18.7943 81.8502 18.5767C81.9493 18.4292 82.0871 18.2769 82.1717 18.2987C82.22 18.3132 82.2539 18.3881 82.2418 18.5622C82.2128 19.215 82.2345 19.8846 82.4497 20.5011C82.6649 21.12 83.0904 21.6906 83.6899 21.9541C83.8495 22.0218 84.0163 22.0701 84.1686 22.1547C84.3161 22.2394 84.4539 22.3699 84.4902 22.5391C84.553 22.8244 84.2895 23.1073 84.0018 23.158L84.0042 23.1556Z" fill="#EF6C32"/>
</svg>
