<svg width="126" height="44" viewBox="0 0 126 44" fill="none" xmlns="http://www.w3.org/2000/svg">
<path d="M15.7631 41.1884C15.8719 41.3624 15.9807 41.5413 16.0895 41.7154L12.1319 44C11.6508 43.2336 11.1745 42.4648 10.6959 41.696C9.62728 39.982 8.55871 38.2679 7.4853 36.5539C6.48201 35.0477 5.55849 33.4884 4.6108 31.9484C3.70904 30.4833 2.713 29.069 1.87651 27.5653C1.74838 27.3356 1.6275 27.1059 1.50904 26.8738C0.800688 25.4716 0.331677 23.9534 0.123765 22.3989C0.0125558 21.5552 -0.0237079 20.7042 0.0149734 19.858C0.319589 13.0163 5.573 7.38088 12.26 6.49121C12.2624 6.5178 12.2624 6.53956 12.2624 6.56374C12.3035 8.32616 11.9796 10.0015 11.322 11.4593C7.46596 12.6585 4.66157 16.2558 4.66157 20.5084C4.66157 23.1919 6.00332 25.3363 7.35717 27.5363C8.30003 29.0666 9.24047 30.5969 10.1833 32.1248C11.2785 33.9018 12.3712 35.6787 13.4664 37.458C14.2328 38.7031 14.9967 39.9433 15.7607 41.1884H15.7631Z" fill="#FDFDFD"/>
<path d="M28.2862 20.5084C28.2862 25.2154 25.9846 29.3857 22.4477 31.9556C19.4282 34.1532 15.1611 33.1838 13.2948 29.949C13.5752 29.9756 13.8556 29.9877 14.1409 29.9877C14.5035 29.9877 14.8638 29.9684 15.2167 29.9273C15.6785 29.8765 16.133 29.7895 16.573 29.671C20.8304 28.5468 23.9128 24.5288 23.5961 19.8459C23.4172 17.2325 22.16 14.8972 20.2646 13.287C20.3565 12.5158 20.3444 11.7035 20.226 10.867C20.0471 9.60507 19.6699 8.41562 19.1888 7.29144C24.5075 9.32463 28.2838 14.4741 28.2838 20.5084H28.2862Z" fill="#FDFDFD"/>
<path d="M5.58025 24.5844C5.38201 24.171 5.21278 23.7382 5.07739 23.2934L5.58025 24.5844Z" fill="#FDFDFD"/>
<path d="M5.58025 24.5844C5.38201 24.171 5.21278 23.7382 5.07739 23.2934L5.58025 24.5844Z" fill="#FDFDFD"/>
<path d="M18.5433 12.1218C18.5602 13.1637 18.362 14.2057 17.8737 15.1196C17.1484 16.4807 15.8598 17.4332 14.755 18.509C13.7082 19.5316 12.7943 20.7187 12.26 22.0798C11.7233 23.4409 11.5928 24.993 12.0811 26.371C11.0077 25.9479 9.98266 25.3556 9.19453 24.5167C8.40156 23.6754 7.86002 22.5705 7.83585 21.4198C7.81409 20.3029 8.2686 19.227 8.84156 18.2697C9.94156 16.4299 11.4985 14.8851 12.5356 13.0066C12.8789 12.3877 13.1569 11.7374 13.3794 11.0653C13.8677 9.60989 14.0756 8.0578 14.0394 6.52505C14.0369 6.47187 14.0369 6.41868 14.0345 6.36549C13.9572 4.17758 13.4011 2.01868 12.5501 0C12.7218 0.408571 13.2198 0.829231 13.4906 1.18945C13.8169 1.61978 14.1337 2.05494 14.4407 2.49978C15.0547 3.38945 15.6301 4.3033 16.162 5.2389C16.4231 5.69824 16.6794 6.16483 16.9235 6.6411C17.6464 8.0578 18.2484 9.54945 18.4708 11.1209C18.5167 11.4545 18.5433 11.7881 18.5482 12.1266L18.5433 12.1218Z" fill="#EF6C32"/>
<path d="M19.3242 22.7035C18.2218 24.1468 16.3047 24.9905 15.7124 26.707C15.2192 25.6143 14.9677 24.4152 14.9822 23.2136C14.9895 22.5875 15.0862 21.9178 15.4948 21.4415C15.8792 20.9943 16.4618 20.7936 16.9719 20.5035C17.9462 19.9499 18.6981 19.0119 19.0269 17.9409C19.1695 17.4839 19.2493 16.4323 19.7473 16.2389C20.8811 18.0158 20.5669 21.0741 19.3242 22.7011V22.7035Z" fill="#EF6C32"/>
<path d="M19.3242 22.7035C18.2218 24.1468 16.3047 24.9905 15.7124 26.707C15.2192 25.6143 14.9677 24.4152 14.9822 23.2136C14.9895 22.5875 15.0862 21.9178 15.4948 21.4415C15.8792 20.9943 16.4618 20.7936 16.9719 20.5035C17.9462 19.9499 18.6981 19.0119 19.0269 17.9409C19.1695 17.4839 19.2493 16.4323 19.7473 16.2389C20.8811 18.0158 20.5669 21.0741 19.3242 22.7011V22.7035Z" fill="#EF6C32"/>
<path d="M44.027 32.4996C43.749 32.6132 43.1712 32.7994 42.4169 32.7994C41.6626 32.7994 41.0171 32.6132 40.4611 32.0765C40.0042 31.6317 39.6996 30.8895 39.6996 29.9998C39.6996 28.4671 40.7053 27.1616 42.5837 27.1616C43.176 27.1616 43.6571 27.3042 43.8723 27.4082L43.7442 27.7321C43.4565 27.5967 43.089 27.4952 42.562 27.4952C41.0365 27.4952 40.1033 28.484 40.1033 29.9805C40.1033 31.4769 41.0171 32.4706 42.4774 32.4706C43.0576 32.4706 43.4299 32.3835 43.633 32.2772V30.331H42.3516V30.0095H44.0222V32.502L44.027 32.4996Z" fill="#FDFDFD"/>
<path d="M45.8402 30.8097L45.1584 32.7437H44.7595L46.7589 27.2147H47.1384L49.1305 32.7437H48.7268L48.0329 30.8097H45.845H45.8402ZM47.9096 30.4833L47.2376 28.6363C47.1022 28.2519 47.0296 27.9763 46.9474 27.662H46.9281C46.8507 27.9835 46.7613 28.2712 46.6404 28.6193L45.9635 30.4833H47.9096Z" fill="#FDFDFD"/>
<path d="M49.805 32.1345C50.1169 32.3472 50.5497 32.4995 51.0138 32.4995C51.8406 32.4995 52.3459 32.0305 52.3459 31.3488C52.3459 30.7299 52.0244 30.3648 51.2266 30.0578C50.3369 29.7411 49.8026 29.2842 49.8026 28.5323C49.8026 27.7224 50.4699 27.1325 51.4103 27.1325C51.9301 27.1325 52.3217 27.2655 52.5103 27.3936L52.358 27.7224C52.2081 27.6184 51.8551 27.4589 51.3813 27.4589C50.4892 27.4589 50.187 28.0318 50.187 28.4646C50.187 29.0787 50.5424 29.3905 51.3329 29.7C52.2444 30.0699 52.7303 30.4833 52.7303 31.3125C52.7303 32.1417 52.1573 32.8307 50.9776 32.8307C50.4989 32.8307 49.9453 32.676 49.6576 32.4584L49.805 32.1321V32.1345Z" fill="#FDFDFD"/>
<path d="M56.3833 29.9974H54.1736V32.415H56.6468V32.7462H53.7844V27.2172H56.5163V27.5484H54.1736V29.6686H56.3833V29.9998V29.9974Z" fill="#FDFDFD"/>
<path d="M57.4325 32.1345C57.7444 32.3472 58.1771 32.4995 58.6413 32.4995C59.4681 32.4995 59.9734 32.0305 59.9734 31.3488C59.9734 30.7299 59.6519 30.3648 58.8541 30.0578C57.9644 29.7411 57.4301 29.2842 57.4301 28.5323C57.4301 27.7224 58.0974 27.1325 59.0378 27.1325C59.5576 27.1325 59.9492 27.2655 60.1378 27.3936L59.9855 27.7224C59.8356 27.6184 59.4826 27.4589 59.0088 27.4589C58.1167 27.4589 57.8145 28.0318 57.8145 28.4646C57.8145 29.0787 58.1699 29.3905 58.9604 29.7C59.8719 30.0699 60.3578 30.4833 60.3578 31.3125C60.3578 32.1417 59.7848 32.8307 58.605 32.8307C58.1264 32.8307 57.5727 32.676 57.285 32.4584L57.4325 32.1321V32.1345Z" fill="#FDFDFD"/>
<path d="M66.6387 32.7438C66.4574 32.5624 66.2954 32.386 66.0294 32.1152C65.4734 32.6495 64.9343 32.8332 64.3541 32.8332C63.4451 32.8332 62.7947 32.1515 62.7947 31.2908C62.7947 30.5244 63.271 30.0167 63.8875 29.6613V29.6372C63.578 29.2213 63.4088 28.82 63.4088 28.4284C63.4088 27.7684 63.8585 27.1253 64.6563 27.1253C65.2437 27.1253 65.7103 27.5508 65.7103 28.2253C65.7103 28.8176 65.3646 29.2649 64.4218 29.7315V29.7556C64.9851 30.4156 65.6209 31.1361 66.0319 31.6051C66.3051 31.1941 66.4743 30.6453 66.6024 29.8282H66.9747C66.8273 30.713 66.6169 31.3851 66.2519 31.8323C66.5371 32.1224 66.8007 32.3981 67.1319 32.7438H66.6387ZM65.8119 31.8807C65.4927 31.5084 64.7747 30.7275 64.0688 29.9031C63.7207 30.111 63.184 30.5268 63.184 31.2449C63.184 31.9629 63.7182 32.5165 64.4387 32.5165C65.0141 32.5165 65.4879 32.253 65.8119 31.8831V31.8807ZM63.7811 28.3921C63.7811 28.8587 64.0035 29.1996 64.2283 29.509C64.8883 29.1609 65.3429 28.82 65.3429 28.2616C65.3429 27.8699 65.1277 27.442 64.5982 27.442C64.0688 27.442 63.7811 27.8893 63.7811 28.3945V28.3921Z" fill="#FDFDFD"/>
<path d="M69.5978 27.2172H72.3297V27.5484H69.987V29.7435H72.1363V30.0747H69.987V32.7486H69.5978V27.2196V27.2172Z" fill="#FDFDFD"/>
<path d="M73.7754 27.2172V30.5534C73.7754 31.958 74.433 32.5044 75.2477 32.5044C76.1591 32.5044 76.7949 31.9145 76.7949 30.5534V27.2172H77.1842V30.5196C77.1842 32.2143 76.2727 32.8356 75.2259 32.8356C74.2613 32.8356 73.3861 32.2723 73.3861 30.5776V27.2172H73.7754Z" fill="#FDFDFD"/>
<path d="M81.12 29.9974H78.9103V32.415H81.3835V32.7462H78.5211V27.2172H81.253V27.5484H78.9103V29.6686H81.12V29.9998V29.9974Z" fill="#FDFDFD"/>
<path d="M82.3433 27.2172H82.7325V32.4174H85.196V32.7462H82.3409V27.2172H82.3433Z" fill="#FDFDFD"/>
<path d="M85.844 32.1345C86.1558 32.3472 86.5886 32.4995 87.0527 32.4995C87.8796 32.4995 88.3848 32.0305 88.3848 31.3488C88.3848 30.7299 88.0633 30.3648 87.2655 30.0578C86.3758 29.7411 85.8415 29.2842 85.8415 28.5323C85.8415 27.7224 86.5112 27.1325 87.4492 27.1325C87.969 27.1325 88.3607 27.2655 88.5492 27.3936L88.3969 27.7224C88.247 27.6184 87.8941 27.4589 87.4202 27.4589C86.5281 27.4589 86.2235 28.0318 86.2235 28.4646C86.2235 29.0787 86.5789 29.3905 87.3694 29.7C88.2809 30.0699 88.7668 30.4833 88.7668 31.3125C88.7668 32.1417 88.1914 32.8307 87.0141 32.8307C86.5354 32.8307 85.9818 32.676 85.6941 32.4584L85.8415 32.1321L85.844 32.1345Z" fill="#FDFDFD"/>
<path d="M91.6196 27.28C91.9387 27.2196 92.3352 27.1736 92.8017 27.1736C93.4617 27.1736 93.9574 27.3429 94.2644 27.6402C94.5303 27.8989 94.6899 28.2616 94.6899 28.7233C94.6899 29.1851 94.5569 29.555 94.3055 29.8281C93.9525 30.2343 93.3578 30.4446 92.6809 30.4446C92.4319 30.4446 92.207 30.4374 92.0112 30.3794V32.7438H91.622V27.28H91.6196ZM92.0088 30.0385C92.2022 30.0989 92.4439 30.1183 92.7099 30.1183C93.7011 30.1183 94.2934 29.6396 94.2934 28.762C94.2934 27.8844 93.6648 27.5 92.7872 27.5C92.4294 27.5 92.1587 27.5339 92.0112 27.5653V30.0361L92.0088 30.0385Z" fill="#FDFDFD"/>
<path d="M96.7521 32.7437L94.9196 27.2147H95.3305L96.3072 30.1787C96.5708 30.9789 96.8004 31.6824 96.9552 32.2965H96.9745C97.1389 31.6727 97.3952 30.9523 97.6804 30.1811L98.7587 27.2171H99.1721L97.1268 32.7462H96.7545L96.7521 32.7437Z" fill="#FDFDFD"/>
<path d="M101.64 27.5435H99.8393V27.2147H103.833V27.5435H102.03V32.7437H101.64V27.5435Z" fill="#FDFDFD"/>
<path d="M106.509 27.031C105.828 27.8723 105.356 28.9119 105.356 30.4156C105.356 31.9194 105.852 32.8985 106.509 33.7519H106.14C105.569 33.0484 104.982 32.0185 104.982 30.4108C104.982 28.8031 105.569 27.7514 106.14 27.031H106.509Z" fill="#FDFDFD"/>
<path d="M107.145 27.2172H107.534V32.4174H109.998V32.7462H107.143V27.2172H107.145Z" fill="#FDFDFD"/>
<path d="M111.451 27.5435H109.65V27.2147H113.644V27.5435H111.84V32.7437H111.451V27.5435Z" fill="#FDFDFD"/>
<path d="M114.033 27.2921C114.458 27.222 114.927 27.1736 115.45 27.1736C116.455 27.1736 117.219 27.4468 117.674 27.9303C118.119 28.3897 118.363 29.0086 118.363 29.8451C118.363 30.6816 118.14 31.3923 117.64 31.9411C117.154 32.473 116.322 32.7873 115.256 32.7873C114.831 32.7873 114.429 32.78 114.033 32.7389V27.2921ZM114.422 32.415C114.647 32.4488 114.969 32.4561 115.314 32.4561C117.091 32.4561 117.964 31.4649 117.964 29.862C117.976 28.4598 117.198 27.5 115.425 27.5C114.998 27.5 114.664 27.5411 114.422 27.5871V32.4125V32.415Z" fill="#FDFDFD"/>
<path d="M118.252 33.7543C118.907 32.913 119.405 31.8783 119.405 30.3866C119.405 28.895 118.921 27.8844 118.252 27.031H118.622C119.192 27.7321 119.78 28.7668 119.78 30.3914C119.78 32.0161 119.192 33.0314 118.622 33.7519H118.252V33.7543Z" fill="#FDFDFD"/>
<path d="M34.3277 11.1983C35.302 11.029 36.6945 10.9033 38.5415 10.9033C40.5094 10.9033 41.9455 11.2249 42.944 12.0299C43.8941 12.7649 44.4622 14.0099 44.4622 15.3758C44.4622 16.8747 43.969 18.1101 43.0914 18.92C42.0108 19.904 40.4031 20.3391 38.7325 20.3391C38.4303 20.3391 38.1523 20.3174 37.9396 20.3053V25.1961H34.3301V11.1983H34.3277ZM37.9371 17.4743C38.1185 17.5057 38.3336 17.5178 38.66 17.5178C40.0864 17.5178 40.8624 16.6934 40.8624 15.5282C40.8624 14.4451 40.2338 13.6908 38.9042 13.6908C38.4497 13.6908 38.1185 13.7319 37.9396 13.7851V17.4743H37.9371Z" fill="#FDFDFD"/>
<path d="M53.8424 19.3817H49.3409V22.174H54.3767V25.196H45.7V10.9976H54.1011V14.0195H49.3409V16.4202H53.8424V19.3817Z" fill="#FDFDFD"/>
<path d="M60.3409 14.1429H57.0675V11H67.306V14.1429H63.9794V25.196H60.3385V14.1429H60.3409Z" fill="#FDFDFD"/>
<path d="M68.4398 11.1983C69.4769 11.029 70.9637 10.9033 72.6439 10.9033C74.6336 10.9033 76.1736 11.1693 77.2204 11.9985C78.1367 12.731 78.5549 13.7246 78.5549 15.0761C78.5549 16.7321 77.4163 18.0424 76.2075 18.5284V18.5936C77.1455 19.0046 77.6411 19.8919 77.9723 21.1708C78.347 22.6044 78.8015 24.6497 79.0747 25.1985H75.3299C75.1268 24.7972 74.769 23.5763 74.4257 21.9033C74.0921 20.2062 73.6158 19.8387 72.5787 19.8387H72.0516V25.1961H68.4422V11.1983H68.4398ZM72.0492 17.1769H72.8688C74.1888 17.1769 74.9237 16.4154 74.9237 15.3613C74.9237 14.3073 74.3145 13.6497 73.125 13.6304C72.5593 13.6304 72.2185 13.6618 72.0492 13.715V17.1794V17.1769Z" fill="#FDFDFD"/>
<path d="M91.1796 23.2112L96.8802 14.1259V14.051H91.7235V10.9976H101.43V13.2532L95.9398 22.0677V22.1426H101.498V25.196H91.1796V23.2112Z" fill="#FDFDFD"/>
<path d="M110.692 19.3817H106.19V22.174H111.226V25.196H102.549V10.9976H110.951V14.0195H106.19V16.4202H110.692V19.3817Z" fill="#FDFDFD"/>
<path d="M113.919 25.196V10.9976H117.952L120.13 15.5765C120.776 16.836 121.561 18.7048 122.105 20.1989H122.158C121.987 18.5428 121.864 16.3259 121.864 14.0365V11H125.149V25.1984H121.45L119.19 20.46C118.503 19.0771 117.664 17.1793 117.111 15.6635H117.045C117.13 17.3727 117.202 19.5751 117.202 22.0242V25.1984H113.917L113.919 25.196Z" fill="#FDFDFD"/>
<path d="M88.7547 17.2591C87.6886 14.9479 86.2235 12.8156 84.7053 10.7849C83.2426 12.7407 81.8404 14.7835 80.7815 16.9884C80.7308 17.0923 80.6824 17.1963 80.6341 17.3027C79.9886 18.6662 79.5679 20.049 79.9668 21.5455C80.3029 22.7978 81.1297 23.9172 82.2853 24.524C82.8365 24.8141 83.4336 25.0123 84.0453 25.138C84.2629 25.1816 84.4853 25.1985 84.7053 25.1936C84.8576 25.1936 85.0051 25.1816 85.1574 25.1598C86.4943 24.993 87.8215 24.3112 88.6435 23.2281C90.007 21.4343 89.6371 19.1642 88.7547 17.2543V17.2591ZM84.0042 23.1556C83.7116 23.2064 83.4191 23.0879 83.1629 22.9453C82.3578 22.4932 81.7147 21.7341 81.4851 20.8372C81.3545 20.3343 81.3666 19.7928 81.5141 19.2947C81.5914 19.0385 81.7026 18.7943 81.8501 18.5767C81.9492 18.4292 82.087 18.2769 82.1716 18.2987C82.22 18.3132 82.2538 18.3881 82.2418 18.5622C82.2127 19.215 82.2345 19.8846 82.4497 20.5011C82.6648 21.12 83.0903 21.6906 83.6899 21.9541C83.8494 22.0218 84.0163 22.0701 84.1686 22.1547C84.316 22.2394 84.4538 22.3699 84.4901 22.5391C84.553 22.8244 84.2894 23.1073 84.0018 23.158L84.0042 23.1556Z" fill="#EF6C32"/>
</svg>
